<svg xmlns="http://www.w3.org/2000/svg" viewBox="0 0 32 32">
  <rect width="32" height="32" rx="8" fill="#ffffff"/>
  <g transform="translate(5.5, 24.5) scale(0.021, -0.021)">
    <path fill="#0a0a0a" d="M241 -85Q225 -85 213.0 -74.0Q201 -63 201 -45V347Q127 339 77 336Q56 334 44.0 344.0Q32 354 30 372Q29 389 40.0 401.5Q51 414 73 415Q82 415 92.0 415.5Q102 416 113 417Q130 439 150.0 468.5Q170 498 191 531Q171 546 144.5 565.0Q118 584 92.0 602.0Q66 620 49 631Q36 640 32.5 656.0Q29 672 38 686Q48 700 65.0 703.0Q82 706 96 697Q102 693 108.0 689.0Q114 685 121 680Q133 700 147.0 725.0Q161 750 173.0 774.0Q185 798 192 814Q199 830 215.5 835.0Q232 840 248 832Q263 825 268.5 810.0Q274 795 266 780Q258 763 243.0 737.5Q228 712 212.0 685.5Q196 659 182 637Q196 627 209.5 617.0Q223 607 234 598Q255 633 273.0 663.5Q291 694 303 716Q311 731 327.0 735.5Q343 740 358 732Q373 724 378.0 708.5Q383 693 375 679Q355 643 327.0 598.5Q299 554 268.5 509.0Q238 464 210 424Q241 426 271.0 428.5Q301 431 327 433Q323 444 318.5 453.0Q314 462 311 469Q304 483 311.0 497.0Q318 511 332 516Q347 522 361.5 516.0Q376 510 383 496Q391 481 402.0 458.0Q413 435 424.5 411.0Q436 387 443 369Q450 353 445.5 338.0Q441 323 424 315Q408 308 392.0 313.0Q376 318 370 333Q368 340 364.5 348.5Q361 357 357 365Q341 363 321.5 360.5Q302 358 282 356V-45Q282 -63 270.0 -74.0Q258 -85 241 -85ZM582 206Q563 206 550.5 217.5Q538 229 537 248Q536 266 547.5 279.0Q559 292 580 293Q611 295 625.5 300.0Q640 305 645.0 317.0Q650 329 650 352V795Q650 814 662.5 825.5Q675 837 692 837Q709 837 721.5 825.5Q734 814 734 795V347Q734 270 699.5 238.0Q665 206 582 206ZM432 -76Q385 -88 372 -50Q367 -33 375.5 -17.5Q384 -2 405 3Q557 42 667.5 130.5Q778 219 837 352Q845 371 862.5 376.5Q880 382 897 374Q914 367 920.0 350.5Q926 334 918 316Q873 226 806.0 149.0Q739 72 646.5 14.5Q554 -43 432 -76ZM465 364Q449 370 443.0 386.0Q437 402 444 417Q458 446 473.0 486.5Q488 527 501.0 570.0Q514 613 522 648Q526 666 540.5 674.0Q555 682 571 678Q588 674 597.0 661.0Q606 648 601 630Q592 593 578.5 548.5Q565 504 549.5 461.0Q534 418 520 387Q513 371 497.5 364.0Q482 357 465 364ZM940 405Q924 398 908.0 405.0Q892 412 885 429Q873 456 854.5 494.0Q836 532 817.0 570.5Q798 609 782 636Q773 651 779.5 665.5Q786 680 799 687Q833 703 854 671Q870 645 890.5 605.5Q911 566 930.5 526.5Q950 487 962 460Q970 442 963.5 427.5Q957 413 940 405ZM57 34Q42 39 35.0 53.5Q28 68 35 81Q46 104 58.5 137.0Q71 170 82.0 204.0Q93 238 99 264Q103 281 116.0 289.0Q129 297 144 293Q159 289 167.5 277.0Q176 265 172 248Q166 221 154.5 186.0Q143 151 131.0 117.5Q119 84 108 58Q101 42 87.0 35.5Q73 29 57 34ZM418 83Q403 76 388.0 81.5Q373 87 367 102Q359 120 349.5 147.5Q340 175 331.0 203.5Q322 232 315 251Q311 268 318.5 280.5Q326 293 341 297Q356 302 369.0 295.5Q382 289 388 273Q394 256 403.0 230.0Q412 204 422.0 178.0Q432 152 439 134Q446 119 440.0 104.5Q434 90 418 83Z"/>
  </g>
</svg>
